{"title":"Fantastic Mr. Fox (2009) 720p.BluRay.x264.DTS-WiKi","uid":5435998,"size":4678879254,"categoryP":"video","categoryS":"hd___movies","magnet":"?xt=urn:btih:d9fd2eb76c0d5295f97e85c347208a0902bbc016&amp;dn=Fantastic+Mr.+Fox+%282009%29+720p.BluRay.x264.DTS-WiKi&amp;tr=udp%3A%2F%2Ftracker.openbittorrent.com%3A80&amp;tr=udp%3A%2F%2Fopen.demonii.com%3A1337&amp;tr=udp%3A%2F%2Ftracker.coppersurfer.tk%3A6969&amp;tr=udp%3A%2F%2Fexodus.desync.com%3A6969","seeders":0,"leechers":1,"uploader":"mfccorrea","files":5,"time":1268761262,"description":"A wily fox uses his formidable cunning to outsmart three feeble-minded farmers, who resort to extreme tactics to protect their chickens in director Wes Anderson's animated adaptation of the popular Roald Dahl children's book. For 12 years, Mr. and Mrs. Fox (voices of George Clooney and Meryl Streep) have lived a peaceful life in the wilderness with their son, Ash (voice of Jason Schwartzman). Shortly after their young nephew Kristofferson (voice of Eric Anderson) arrives for a visit, Mr. Fox's long-suppressed animal instincts begin to take over and the faithful family man resorts back to his old ways as a cunning chicken thief, endangering not only his family but the entire animal community as well. When evil farmers Boggis, Bunce, and Bean force the animals underground in a desperate attempt to capture the audacious Mr. Fox, dwindling food supplies force the frightened animals to band together in one last attempt to fight for the land that is rightfully theirs. Bill Murray, Michael Gambon, Willem Dafoe, and Owen Wilson provide additional voices. \n\n   General\n      Complete name : Fantastic Mr. Fox.mkv\n      Format : Matroska\n      File size : 4.36 GiB\n      Duration : 1h 26mn\n      Overall bit rate : 7 191 Kbps\n      Encoded date : UTC 2010-03-14 11:37:17\n      Writing application : mkvmerge v3.2.0 ('Beginnings') ??? Feb 12 2010 16:46:17\n      Writing library : libebml v0.7.9 + libmatroska v0.8.1\n   Video #1\n      ID : 1\n      Format : AVC\n      Format/Info : Advanced Video Codec\n      Format profile : &lt;a class=&quot;__cf_email__&quot; href=&quot;/cdn-cgi/l/email-protection&quot; data-cfemail=&quot;1f577678775f532b312e&quot;&gt;[email&amp;#160;protected]&lt;/a&gt;&lt;script cf-hash='f9e31' type=&quot;text/javascript&quot;&gt;\n/* &lt;![CDATA[ */!function(){try{var t=&quot;currentScript&quot;in document?document.currentScript:function(){for(var t=document.getElementsByTagName(&quot;script&quot;),e=t.length;e--;)if(t[e].getAttribute(&quot;cf-hash&quot;))return t[e]}();if(t&amp;&amp;t.previousSibling){var e,r,n,i,c=t.previousSibling,a=c.getAttribute(&quot;data-cfemail&quot;);if(a){for(e=&quot;&quot;,r=parseInt(a.substr(0,2),16),n=2;a.length-n;n+=2)i=parseInt(a.substr(n,2),16)^r,e+=String.fromCharCode(i);e=document.createTextNode(e),c.parentNode.replaceChild(e,c)}}}catch(u){}}();/* ]]&gt; */&lt;/script&gt;\n      Format settings, CABAC : Yes\n      Format settings, ReFrames : 8 frames\n      Muxing mode : Container profile=&lt;a class=&quot;__cf_email__&quot; href=&quot;/cdn-cgi/l/email-protection&quot; data-cfemail=&quot;0752696c6968706947332936&quot;&gt;[email&amp;#160;protected]&lt;/a&gt;&lt;script cf-hash='f9e31' type=&quot;text/javascript&quot;&gt;\n/* &lt;![CDATA[ */!function(){try{var t=&quot;currentScript&quot;in document?document.currentScript:function(){for(var t=document.getElementsByTagName(&quot;script&quot;),e=t.length;e--;)if(t[e].getAttribute(&quot;cf-hash&quot;))return t[e]}();if(t&amp;&amp;t.previousSibling){var e,r,n,i,c=t.previousSibling,a=c.getAttribute(&quot;data-cfemail&quot;);if(a){for(e=&quot;&quot;,r=parseInt(a.substr(0,2),16),n=2;a.length-n;n+=2)i=parseInt(a.substr(n,2),16)^r,e+=String.fromCharCode(i);e=document.createTextNode(e),c.parentNode.replaceChild(e,c)}}}catch(u){}}();/* ]]&gt; */&lt;/script&gt;\n      Codec ID : V_MPEG4/ISO/AVC\n      Duration : 1h 26mn\n      Bit rate : 5 538 Kbps\n      Nominal bit rate : 5 681 Kbps\n      Width : 1 280 pixels\n      Height : 692 pixels\n      Display aspect ratio : 1.850\n      Frame rate : 23.976 fps\n      Resolution : 24 bits\n      Colorimetry : 4:2:0\n      Scan type : Progressive\n      Bits/(Pixel*Frame) : 0.261\n      Stream size : 3.35 GiB (77%)\n      Writing library : x264 core 85 r1442kGIT 781d300      \n   Audio #2\n      ID : 2\n      Format : DTS\n      Format/Info : Digital Theater Systems\n      Codec ID : A_DTS\n      Duration : 1h 26mn\n      Bit rate mode : Constant\n      Bit rate : 1 510 Kbps\n      Channel(s) : 6 channels\n      Channel positions : Front: L C R, Surround: L R, LFE\n      Sampling rate : 48.0 KHz\n      Resolution : 24 bits\n      Stream size : 937 MiB (21%)\n      Title : English DTS 5.1 @ 1.5 Mbps\n      Language : English\n\nEnglish audio; English, French, Spanish and Portuguese subtitles\n\nIMDB: tt0432283\n\nFantastic Mr. Fox (2009) 720p.BluRay.x264.DTS-WiKi","torrent":{"xt":"urn:btih:d9fd2eb76c0d5295f97e85c347208a0902bbc016","amp;dn":"Fantastic+Mr.+Fox+%282009%29+720p.BluRay.x264.DTS-WiKi","amp;tr":["udp%3A%2F%2Ftracker.openbittorrent.com%3A80","udp%3A%2F%2Fopen.demonii.com%3A1337","udp%3A%2F%2Ftracker.coppersurfer.tk%3A6969","udp%3A%2F%2Fexodus.desync.com%3A6969"],"infoHash":"d9fd2eb76c0d5295f97e85c347208a0902bbc016","infoHashBuffer":{"type":"Buffer","data":[217,253,46,183,108,13,82,149,249,126,133,195,71,32,138,9,2,187,192,22]},"announce":[],"urlList":[]}}